# xmcd
#
# Track frame offsets: 
#        150
#        17606
#        39644
#        57251
#        73486
#        87882
#        104987
#        124181
#        143241
#        156422
#
# Disc length: 2339 seconds
#
# Revision: 4
# Processed by: cddbd v1.5.2PL0 Copyright (c) Steve Scherf et al.
# Submitted via: ExactAudioCopy v1.3
#
DISCID=9609210a
DTITLE=Dan Seals - Classics Collection Vol. 2
DYEAR=1992
DGENRE=Country
TTITLE0=Love On Arrival
TTITLE1=Everything That Glitters (Is Not Gold)
TTITLE2=Big Wheels In The Moonlight
TTITLE3=Good Times
TTITLE4=One Friend
TTITLE5=Bop
TTITLE6=Addicted
TTITLE7=Still A Little Bit Of Love
TTITLE8=You Really Go For The Heart
TTITLE9=Wood
EXTD=YEAR: 1992 ID3G:   2
EXTT0=
EXTT1=
EXTT2=
EXTT3=
EXTT4=
EXTT5=
EXTT6=
EXTT7=
EXTT8=
EXTT9=
PLAYORDER=
